<?xml version="1.0" encoding="utf-8"?>
<!-- Generator: Adobe Illustrator 22.1.0, SVG Export Plug-In . SVG Version: 6.00 Build 0)  -->
<svg version="1.1" id="Layer_1" xmlns="http://www.w3.org/2000/svg" xmlns:xlink="http://www.w3.org/1999/xlink" x="0px" y="0px"
	 viewBox="0 0 833 193" style="enable-background:new 0 0 833 193;" xml:space="preserve">
<style type="text/css">
	.st0{fill:#FEFEFE;}
	.st1{fill:#6ABBFC;}
	.st2{fill:#0ABEFD;}
	.st3{fill:#FDFEFE;}
	.st4{fill:#66B9FC;}
	.st5{fill:#F5FAFE;}
	.st6{fill:#65B8FC;}
	.st7{fill:#65B9FC;}
	.st8{fill:#67BBFC;}
	.st9{fill:#66BAFB;}
	.st10{fill:#67BAFC;}
	.st11{fill:#64B8FC;}
	.st12{fill:#63B9FB;}
	.st13{fill:#5EB6FC;}
	.st14{fill:#59B3FB;}
	.st15{fill:#60B7FC;}
	.st16{fill:#5EB7FC;}
	.st17{fill:#5FB6FB;}
	.st18{fill:#5BB5FC;}
	.st19{fill:#5DB6FC;}
	.st20{fill:#5BB4FB;}
	.st21{fill:#5BB4FC;}
	.st22{fill:#69BCFC;}
</style>
<g>
	<path class="st0" d="M417.6,194c-137.5,0-274.9,0-412.4,0.1c-3.7,0-4.3-0.8-4.3-4.4C1,128.2,1,66.8,0.9,5.3c0-3.5,0.6-4.4,4.3-4.4
		C280.2,1,555.1,1,830,0.9c3.5,0,4.1,0.7,4.1,4.1c-0.1,61.7-0.1,123.3,0,185c0,3.4-0.6,4.1-4.1,4.1C692.6,194,555.1,194,417.6,194z"
		/>
	<path class="st1" d="M133,159c-1.5,1.6-3.4,0.9-5.2,0.9c-38.3,0-76.6,0-115,0c-7.4,0-9-1.6-9-9.1c0-38.5,0-77,0-115.5
		c0-6.8,1.1-7.7,7.7-7.7c39.2,0,78.3,0,117.5,0c5.7,0,7.2,1.1,7.2,6.8c0,19,0,38,0,57c0,20.3,0,40.6,0,60.9
		C136.3,155.2,136,157.7,133,159c-1.7-1-3.6-0.5-5.4-0.5c-37,0-74,0-111,0c-1.6,0-3.3,0.2-4.9-0.1c1.1,0.5,2.3,0.1,3.4,0.1
		c38,0,76,0,114,0C130.4,158.5,131.8,158.2,133,159z"/>
	<path class="st2" d="M753,132.4c0,12.1-0.1,24,0.1,36c0.1,4-1.4,5.1-5.2,5.1c-12.9,0-12.9,0.1-12.9-12.6c0-29,0.1-57.9-0.1-86.9
		c0-3.8,0.8-5.8,4.9-5.1c0.6,0.1,1.3,0,2,0c10.2,0,10.2,0,11.7,9.3c1.3,0.4,1.8-0.7,2.4-1.3c9.7-9.7,21.4-11.7,34.1-7.8
		c12.8,3.9,19.9,13.4,22.8,26.1c1.8,7.9,1.4,15.8-0.9,23.7c-7.5,25-37.5,32.9-56.2,14.7C755.1,133,754.7,132.1,753,132.4z"/>
	<path class="st2" d="M493.9,99c-2.6,7.8-5.3,15.5-7.9,23.3c-1.7,5.2-3.5,10.4-5.1,15.6c-0.8,2.9-2.4,3.8-5.4,3.8
		c-10.7,0.1-10.8,0.2-14.5-10c-7.1-19.3-14.1-38.7-21.3-58c-1.6-4.3-0.6-5.1,3.6-5.1c13.7,0.1,13.7-0.1,18,13.2
		c3.1,9.6,6.2,19.3,9.4,28.9c0.5,1.6,0.5,3.6,2.7,5.2c2.2-6.8,4.4-13.3,6.5-19.9c2.3-6.9,4.6-13.9,6.7-20.9c0.9-3.1,2.3-4.3,5.6-4.2
		c8.6,0,8.6-0.1,11.2,8c3.5,10.9,7.1,21.8,10.6,32.7c0.4,1.2,0.1,3.1,1.9,3c1.6-0.1,1.5-2,1.9-3.2c4.3-12.9,8.7-25.8,12.8-38.8
		c0.9-2.9,2.2-4.1,5.2-4c3.8,0.2,7.7,0.1,11.5,0c2.7-0.1,3.7,0.6,2.6,3.5c-8.3,22.3-16.5,44.6-24.6,66.9c-0.7,1.9-1.8,2.4-3.7,2.6
		c-11.9,1.1-11.8,1.1-15.6-10.3c-3.6-10.8-7.2-21.6-10.8-32.4C494.7,99.1,494.3,99.1,493.9,99z"/>
	<path class="st2" d="M659.2,130.7c0,13.3-0.1,25.5,0.1,37.6c0.1,3.8-0.8,5.3-4.9,5.2c-12.8-0.1-12.8,0.1-12.8-12.7
		c0-28.6,0.1-57.3-0.1-85.9c0-4.9,1.5-6.2,6.2-6c10.6,0.3,10.6,0.1,12,9.9c1.3,0.5,1.7-0.7,2.3-1.3c9.7-10.1,21.6-12.2,34.4-8.2
		c12.7,3.9,20.1,13.2,22.7,26.1c2.8,13.9,1.2,27-8.8,37.8c-13.3,14.3-35.3,14-48.8-0.2C661.1,132.3,660.6,131.9,659.2,130.7z"/>
	<path class="st2" d="M220.1,39.9c10.9,0.4,21.4,2.6,31.3,7.2c2.2,1,2.9,1.9,1.7,4.5c-4.5,9.9-4.4,9.9-14.5,6.6
		c-6.9-2.3-13.9-3.4-21.1-3.1c-2.9,0.1-5.6,0.8-8.2,2c-4.2,1.9-6.9,5.2-7.2,10c-0.3,4.8,2,8.4,6.1,10.6c7.1,3.8,15,5.3,22.5,8.1
		c3.4,1.3,6.9,2.4,10.2,3.9c13.4,6.3,18.4,14.8,17,29c-1,10.6-9.7,19.8-22.3,22.8c-17.9,4.3-34.9,1.3-51.2-7.1
		c-3.1-1.6-3.7-3.2-1.7-6.1c2-2.9,2.9-7.1,5.5-8.7c2.8-1.7,5.8,2.2,8.7,3.5c8.9,3.8,18,5.9,27.7,5.1c2.9-0.2,5.6-0.9,8.1-2.2
		c4-2.1,6.8-5.2,7.1-10.1c0.3-5.1-2-8.7-6.1-11.2c-4.6-2.8-9.8-4-14.9-5.6c-6.3-2-12.7-3.9-18.7-6.9c-11.8-5.9-17.1-14.4-16.3-26
		c0.8-11.1,8.5-20.2,20.5-23.8C209.5,40.8,214.8,39.9,220.1,39.9z"/>
	<path class="st2" d="M290.9,78c1.2,0.2,1.6-0.9,2.3-1.6c15.2-15.8,39-10.5,45.9,10.3c1.6,4.8,2.1,9.8,2.1,14.8c0.2,12,0,24,0.1,36
		c0,3.2-1.1,4.3-4.3,4.4c-13.8,0.4-13.8,0.5-13.8-13.3c0-9.8,0.2-19.7-0.1-29.5c-0.4-13.5-11.4-21-22.3-15.4
		c-6.5,3.3-9.5,9.1-10.2,16.1c-1.2,12.1-0.6,24.3-0.5,36.4c0,4.4-1.2,5.7-5.6,5.6c-12.2-0.2-12.3,0-12.3-12.4
		c0-28.5,0.1-57-0.1-85.5c0-4.5,1.2-6,5.9-5.9c12,0.3,12,0.1,12,12.1c0,8.3,0,16.7,0,25C290.1,76.2,289.8,77.3,290.9,78z"/>
	<path class="st2" d="M604.9,133.3c-10.3,9.9-22,12.4-34.9,8.5c-10.4-3.1-17-12-16.8-21.7c0.2-9.6,8-18.6,18.5-21
		c10.7-2.5,21.1-2.1,30.8,3.7c2.6,1.6,3.3,1.1,3.4-1.9c0.1-11.4-7-18.8-18.4-19c-7.2-0.2-13.9,1.1-20,5c-2.2,1.4-3.2,1.1-4.6-1.2
		c-5.1-8.9-4.8-10.3,4.9-14.1c11.8-4.6,23.9-6.2,36-1.5c12,4.7,18.6,14.1,19.3,26.7c0.7,13.8,0.2,27.6,0.3,41.5
		c0,2.5-0.7,3.8-3.4,3.6c-1.5-0.1-3,0-4.5,0C606.7,141.8,606.7,141.8,604.9,133.3z"/>
	<path class="st2" d="M394.6,67.3c20.6,0.3,39.1,14.4,39,38.3c-0.1,21.9-16,37.8-39.4,37.8c-24.7,0-39.2-17.9-39.2-38.5
		C355.1,83.6,372.4,67.2,394.6,67.3z"/>
	<path class="st0" d="M85.8,136.1c-0.6-1.9-1.8-3-3.9-2.9c-8,0.6-15.9,0.6-23.9,0c-2.5,0.2-3.7,1.5-4,3.9c0.5,4,0.9,8-0.2,11.9
		c-3.6,1.4-5.7,1.4-6.2-3.6c-0.4-3.8,0.2-7.9-1.6-11.6c-1.2-1.2-0.7-2.4-0.3-3.7c-1.9-11.7-6.5-21.9-15.9-29.5
		c-1.8-1.4-2-2.1-0.3-3.8C40,87.3,43.7,74.6,46,61.3c0.4-2.4,0.6-4.9,0.9-7.4c-0.5-3.2-0.8-6.5,0.2-9.7c-0.2-6.6,4-6.7,9-6.5
		c10.4,0.3,20.8,0.1,31.2,0.1c1.9,0,4-0.4,5.5,1.3c0.9,7.2,0.9,14.5,1.7,21.8c0.5,1.6,1.3,3.2,0.7,5c2.3,11.8,6.4,22.7,15.4,31.2
		c1.2,1.1,1.5,1.9,0,3.1c-9.9,7.5-14.1,18.2-16.4,29.9c0.3,1.3,0.6,2.6-0.3,3.8c-1.3,1.6-1,3.4-0.8,5.2c0.4,2.9,0.8,5.9-0.2,8.8
		c-1.3,1.5-2.9,2.4-4.8,1.7c-2.1-0.8-1.1-2.8-1.3-4.4c-0.4-2.7,0.7-5.6-0.7-8.3c-0.3-0.1-0.4-0.3-0.4-0.5
		C85.7,136.2,85.8,136.1,85.8,136.1z"/>
	<path class="st3" d="M14,65.6c0-7.8,0.1-15.6-0.1-23.4c-0.1-3.1,0.6-4.6,4.1-4.4c5.1,0.2,10.3,0.1,15.4,0c2.1,0,3.5,0.3,3.5,2.9
		c-0.2,14.7-1.8,29.2-9.5,42.2c-2.3,4-5.6,6.9-9.8,8.9c-2.7,1.3-3.9,1-3.8-2.4C14.1,81.6,14,73.6,14,65.6z"/>
	<path class="st3" d="M103.2,38.1c6.5-0.1,13-0.1,19.4-0.2c2.6-0.1,3.4,1,3.4,3.5c-0.1,16.1-0.1,32.2,0,48.3c0,3-0.9,3.4-3.5,2.2
		c-6.1-2.8-9.9-7.8-12.4-13.7c-2-4.7-3.4-9.6-5-14.5c-2-2.6-0.8-5.9-2-8.7c-0.2-2.2,0.1-4.5-0.6-6.7
		C103.3,44.9,100.8,41.3,103.2,38.1z"/>
	<path class="st3" d="M37.1,143c0.6,4.9-1.2,6.9-6.3,6.3c-4.3-0.5-8.6-0.2-13-0.1c-2.7,0.1-3.9-0.7-3.9-3.6
		c0.1-12.5,0.1-24.9,0-37.4c0-3.2,1.3-3.1,3.6-2.2c7.6,2.8,12,8.6,15,15.7c1.3,3,2.1,6.2,3.2,9.4C37.1,135,38.8,138.8,37.1,143z"/>
	<path class="st3" d="M106,125.1c2-3.4,3-7.3,5.4-10.5c2.1-2.9,4.6-5.2,7.6-7c1.9-1.1,4.1-2.7,5.9-1.9c2.2,1,1,3.8,1,5.8
		c0.1,11.1-0.1,22.2,0.1,33.3c0.1,3.5-1.1,4.6-4.6,4.5c-6.1-0.3-12.3-0.2-18.4-0.3c-2.7-5.2,0.1-10.3,0.2-15.5
		C103.5,130.7,103.9,127.5,106,125.1z"/>
	<path class="st4" d="M133,159c-40.9,0-81.8,0-123.5,0c1.8-1.5,3.2-1,4.5-1c37.9,0,75.9,0,113.8,0C129.6,158,131.6,157.4,133,159
		C133,159,133,159,133,159z"/>
	<path class="st5" d="M70.2,149c-1.2,0-2.3,0-3.5,0c-2,0.1-2.6-1-2.6-2.8c0-3.4,2.5-3.3,4.5-3c2.5,0.5,6.4-2.1,7.3,2.7
		c0.3,1.6-0.1,3-2.3,3C72.5,149,71.3,149,70.2,149z"/>
	<ellipse class="st6" cx="12.5" cy="65.4" rx="0.3" ry="37.3"/>
	<path class="st7" d="M127.2,91.8c0-17.6,0-35.1,0-52.7c0.2,0,0.3,0,0.5,0c0,17.5,0,35.1,0,52.6C127.6,91.7,127.4,91.8,127.2,91.8z"
		/>
	<path class="st8" d="M106,125.1c-1.6,7.9-3.4,15.7-2.9,23.8c-1.4,0-2.3-0.8-2.1-2.2c1.2-7.3,0.6-14.9,3.5-21.9
		C105.3,123.3,105.8,123.6,106,125.1z"/>
	<path class="st6" d="M12.1,147.7c0-13.8,0-27.6,0-41.3c0.2,0,0.3,0,0.5,0c0,13.8,0,27.7,0,41.5C12.5,147.8,12.3,147.7,12.1,147.7z"
		/>
	<ellipse class="st7" cx="127.5" cy="127" rx="0.3" ry="29.5"/>
	<path class="st7" d="M90.7,36.9c-13.8,0-27.6,0-41.3,0c0-0.2,0-0.3,0-0.5c13.8,0,27.7,0,41.5,0C90.8,36.5,90.7,36.7,90.7,36.9z"/>
	<path class="st9" d="M103.2,38.1c0,3.6-0.1,7.1-0.1,10.7c1,2-0.2,4.2,0.8,6.2c0.4,2.9,0.8,5.8,1.2,8.8c-0.1,1.1-0.2,2.2-0.5,4.7
		c-1.8-6.6-2.1-12-2.6-17.4c-0.3-3.3,0.5-6.6-0.8-9.9C100.7,39.6,101.1,38.1,103.2,38.1z"/>
	<path class="st7" d="M94.2,62c-1-7.6-1.7-15.2-1.3-22.8c0.9-0.5,1.1,0.1,1.1,0.8c0.3,7,0.7,14.1,1,21.1C95.5,62,95,62.1,94.2,62z"
		/>
	<path class="st10" d="M37.1,143c-0.4-4-0.9-8-1.3-12c4.3,1.9,1.7,6.1,3,9.1c0.9,2.2,0.2,5.2,0.2,8.2
		C37.2,146.6,38.9,144.3,37.1,143z"/>
	<path class="st11" d="M58.1,133.1c8,0,15.9,0,23.9,0C74,134.6,66,134.6,58.1,133.1z"/>
	<path class="st12" d="M47.1,44.2c-0.1,3.2-0.2,6.5-0.2,9.7c-1.9-4.9-0.2-9.9-1.2-16.2C47.6,40.7,46.7,42.5,47.1,44.2z"/>
	<path class="st13" d="M85.8,136.1c0.2,0.3,0.2,0.5,0.2,0.9c0,3.6,0,7.3,0,10.9C85.4,143.9,84.1,139.9,85.8,136.1z"/>
	<path class="st14" d="M53.9,149c0.1-4,0.1-8,0.2-11.9C55.4,141.1,55.7,145,53.9,149z"/>
	<path class="st15" d="M92.9,147.9c0.1-2.9,0.2-5.9,0.2-8.8c1.6,2.9,0.8,5.9,0.6,8.9c0,0.1-0.3,0.1-0.4,0.1
		C93.2,148.1,93,147.9,92.9,147.9z"/>
	<path class="st16" d="M93.9,133.9c0.1-1.3,0.2-2.5,0.3-3.8c1.2,1.4,1.1,3.2,0.5,4.6C94.4,135.6,94.2,134.2,93.9,133.9z"/>
	<path class="st17" d="M94.2,62c0.3-0.3,0.6-0.6,0.8-1c1.5,1.6,1.4,3.2,0.2,4.9C94.9,64.6,94.5,63.3,94.2,62z"/>
	<path class="st18" d="M45.9,130.1c0.1,1.2,0.2,2.5,0.3,3.7C44.1,132.7,44.9,131.4,45.9,130.1z"/>
	<path class="st0" d="M795.9,105.8c-0.1,10.6-5.3,19.1-13.4,21.9c-8.6,3-19,0.3-24.6-6.4c-7.1-8.5-6.9-24.2,0.5-32.4
		c6.7-7.5,19.3-9.2,27.8-3.8C792.6,89.1,795.9,96.3,795.9,105.8z"/>
	<path class="st0" d="M702.3,105.3c0,14.3-7.9,23.3-20.7,23.4c-13.5,0.1-22.3-9-22.4-23.1c-0.1-14.2,8.6-23.6,21.9-23.6
		C694.2,81.9,702.3,90.8,702.3,105.3z"/>
	<path class="st3" d="M588.4,130.4c-11.1,0.1-17.2-4.4-17.2-10.8c0-6.2,5.7-10.5,14.3-10.9c5.6-0.2,11,0.5,16.1,2.8
		c4.8,2.2,5.9,7.3,2.3,11.3C599.1,128,593,130.3,588.4,130.4z"/>
	<path class="st0" d="M373,105.3c0.1-13.3,9.4-23.3,21.6-23.2c11.9,0.1,21.4,10.7,21.3,23.7c-0.1,12.7-9.7,22.9-21.5,22.8
		C381.9,128.6,372.9,118.7,373,105.3z"/>
	<path class="st1" d="M87.1,78c-6.7,5.1-9.5,11.4-5.7,20.4C73.8,92.1,66.6,92.3,59,99c0.6-5.3,2.3-9.7,1-12.9
		c-1.2-3.1-5.4-5.1-9.3-8.3c3.9-1.3,6-2,8.3-1.7c0.7,0.6,1.6,0.4,2.4,0.4c0.1,0,1.8,0.7,0.4-0.6c5.3-2,4.9-8.1,8.4-11.6
		c3.2,3.7,3.2,9.3,8,11.6c0.3-0.6-0.1,1-0.3,0.4s-1-0.1-0.4,0.1c1.2,0.3,2.4,0.4,3.5-0.3c1.5-0.1,3-0.1,4.3,0.8
		c-0.4,0.6-1,0.5-1.6,0.6c0.6,0.5,1.2-0.1,1.8,0C86,77.6,86.7,77.5,87.1,78z"/>
	<path class="st19" d="M87.1,78c-1.4-0.1-2.8-0.2-4.1-0.2c0-0.2,0-0.4,0-0.6c0.8-0.1,1.5-0.2,2.3-0.3C85.9,77.2,87.6,75.8,87.1,78z"
		/>
	<path class="st20" d="M81,76.1c-0.9,1.2-2.2,0.9-3.5,0.9c-0.6,0-0.7-0.4-0.2-0.8c0.2-0.2,0.6-0.2,0.9-0.3C79.1,76,80,76,81,76.1z"
		/>
	<path class="st21" d="M61.8,75.9c0.3,0.1,0.7,0.1,0.9,0.3c0.5,0.4,0.3,0.8-0.2,0.8c-1.2,0-2.5,0.4-3.4-0.9C60,76,60.9,76,61.8,75.9
		z"/>
	<path class="st22" d="M103.9,55c-1.7-1.9-0.6-4.1-0.8-6.2C104.2,50.7,103.9,52.9,103.9,55z"/>
</g>
</svg>
